<svg width="37" height="30" viewBox="0 0 37 30" fill="none" xmlns="http://www.w3.org/2000/svg">
<path d="M1.37216 11.5428C1.04313 9.1403 2.91029 7 5.33517 7H32.1648C34.5897 7 36.4569 9.14031 36.1278 11.5428L34.0735 26.5428C33.8022 28.5237 32.1099 30 30.1105 30H7.38951C5.39011 30 3.69781 28.5237 3.42651 26.5428L1.37216 11.5428Z" fill="url(#paint0_linear_1007_9714)"/>
<path d="M21.284 23H17.384V21.968L18.428 21.488V15.944L17.384 15.464V14.432H21.284V15.464L20.24 15.944V21.488L21.284 21.968V23Z" fill="#5A6B7A"/>
<path d="M3.75 5H33.75C33.75 3.61929 32.6307 2.5 31.25 2.5H17.5623C16.7305 2.5 15.9767 2.01013 15.6389 1.25C15.3011 0.489873 14.5473 0 13.7154 0H7.75C5.54086 0 3.75 1.79086 3.75 4V5Z" fill="#D1CDAA"/>
<defs>
<linearGradient id="paint0_linear_1007_9714" x1="34.25" y1="33" x2="-9.25" y2="-4" gradientUnits="userSpaceOnUse">
<stop stop-color="#EAE4DB"/>
<stop offset="1" stop-color="#D3CEC4" stop-opacity="0"/>
</linearGradient>
</defs>
</svg>
