<svg width="38" height="29" viewBox="0 0 38 29" fill="none" xmlns="http://www.w3.org/2000/svg">
<path d="M23.1801 0H7.54423C3.91731 0 0.977112 2.93493 0.977112 6.55534V22.1632C0.977112 25.7836 3.91731 28.7186 7.54423 28.7186H23.1801C26.8071 28.7186 29.7473 25.7836 29.7473 22.1632V6.55534C29.7473 2.93493 26.8071 0 23.1801 0Z" fill="url(#paint0_linear_1007_11100)"/>
<path d="M23.0744 0H7.43846C3.81154 0 0.871338 2.93493 0.871338 6.55534V22.1632C0.871338 25.7836 3.81154 28.7186 7.43846 28.7186H23.0744C26.7013 28.7186 29.6415 25.7836 29.6415 22.1632V6.55534C29.6415 2.93493 26.7013 0 23.0744 0Z" fill="url(#paint1_linear_1007_11100)"/>
<g style="mix-blend-mode:overlay" opacity="0.33">
<path d="M23.0744 0H7.43846C3.81154 0 0.871338 2.93493 0.871338 6.55534V22.1632C0.871338 25.7836 3.81154 28.7186 7.43846 28.7186H23.0744C26.7013 28.7186 29.6415 25.7836 29.6415 22.1632V6.55534C29.6415 2.93493 26.7013 0 23.0744 0Z" fill="#35404C"/>
</g>
<mask id="mask0_1007_11100" style="mask-type:luminance" maskUnits="userSpaceOnUse" x="0" y="0" width="38" height="29">
<path d="M23.1801 28.7186H7.43846C3.81172 28.7186 0.871338 25.7835 0.871338 22.1632V6.55534C0.871338 2.93511 3.81129 0 7.43846 0H23.1801C26.8069 0 37.9996 4.59513 37.9996 8.21536L29.7468 22.1632C29.7468 25.7835 26.8064 28.7186 23.1797 28.7186H23.1801Z" fill="white"/>
</mask>
<g mask="url(#mask0_1007_11100)">
<path d="M19.9838 7.8437C11.7063 18.2291 -5.61005 25.0208 -5.61005 25.0208L1.86539 24.8657C3.61804 24.7984 8.52391 23.5389 10.4419 20.6794C10.4428 20.6781 10.4406 20.6746 10.4419 20.675C13.0346 21.6404 19.7806 22.4063 30.2086 15.4665C34.6209 12.3854 36.7008 9.75352 36.7008 9.75352C36.7008 9.75352 25.23 11.7203 19.9838 7.84326V7.8437Z" fill="url(#paint2_linear_1007_11100)"/>
<path d="M19.9838 7.8437C11.7063 18.2291 -5.61005 25.0208 -5.61005 25.0208L1.86539 24.8657C3.61804 24.7984 8.52391 23.5389 10.4419 20.6794C10.4428 20.6781 10.4406 20.6746 10.4419 20.675C13.0346 21.6404 19.7806 22.4063 30.2086 15.4665C34.6209 12.3854 36.7008 9.75352 36.7008 9.75352C36.7008 9.75352 25.23 11.7203 19.9838 7.84326V7.8437Z" fill="url(#paint3_radial_1007_11100)"/>
<path d="M19.9838 7.8437C11.7063 18.2291 -5.61005 25.0208 -5.61005 25.0208L1.86539 24.8657C3.61804 24.7984 8.52391 23.5389 10.4419 20.6794C10.4428 20.6781 10.4406 20.6746 10.4419 20.675C13.0346 21.6404 19.7806 22.4063 30.2086 15.4665C34.6209 12.3854 36.7008 9.75352 36.7008 9.75352C36.7008 9.75352 25.23 11.7203 19.9838 7.84326V7.8437Z" fill="url(#paint4_linear_1007_11100)"/>
<path d="M19.6692 7.37463C19.6692 7.37463 19.6587 7.38636 19.6526 7.39288C10.7971 17.0832 -5.77499 23.8223 -5.77499 23.8223L1.75441 23.9313C3.4853 23.9379 8.15527 22.7688 10.5051 19.6951C10.5042 19.6951 10.5046 19.6951 10.5051 19.6946C10.5051 19.6946 10.5046 19.6951 10.5051 19.6951C13.6652 19.9397 18.6111 19.9266 28.8637 12.4125C32.8909 9.35831 35.2141 6.91064 35.2141 6.91064C35.2141 6.91064 26.272 8.88954 19.6692 7.37463Z" fill="url(#paint5_linear_1007_11100)"/>
<path d="M19.6692 7.37463C19.6692 7.37463 19.6587 7.38636 19.6526 7.39288C10.7971 17.0832 -5.77499 23.8223 -5.77499 23.8223L1.75441 23.9313C3.4853 23.9379 8.15527 22.7688 10.5051 19.6951C10.5042 19.6951 10.5046 19.6951 10.5051 19.6946C10.5051 19.6946 10.5046 19.6951 10.5051 19.6951C13.6652 19.9397 18.6111 19.9266 28.8637 12.4125C32.8909 9.35831 35.2141 6.91064 35.2141 6.91064C35.2141 6.91064 26.272 8.88954 19.6692 7.37463Z" fill="url(#paint6_linear_1007_11100)"/>
<path d="M19.5194 7.12524C6.92315 17.9447 -6 22.7314 -6 22.7314L3.58584 22.4937L3.8522 22.4455C4.92764 22.2405 8.1457 21.4133 10.4254 19.4122C10.4254 19.4122 11.2802 19.3553 11.2811 19.3549C18.0802 17.7904 26.1336 11.749 26.2511 11.6708C31.0877 8.14445 33.7352 4.73145 33.7352 4.73145C33.7352 4.73145 25.0329 6.94147 19.519 7.12524H19.5194Z" fill="url(#paint7_linear_1007_11100)"/>
<path d="M19.5194 7.12524C6.92315 17.9447 -6 22.7314 -6 22.7314L3.58584 22.4937L3.8522 22.4455C4.92764 22.2405 8.1457 21.4133 10.4254 19.4122C10.4254 19.4122 11.2802 19.3553 11.2811 19.3549C18.0802 17.7904 26.1336 11.749 26.2511 11.6708C31.0877 8.14445 33.7352 4.73145 33.7352 4.73145C33.7352 4.73145 25.0329 6.94147 19.519 7.12524H19.5194Z" fill="url(#paint8_linear_1007_11100)"/>
<path d="M10.3192 19.1012C8.0395 21.1023 4.92764 22.2405 3.85263 22.4456L5.27582 22.1884C12.9658 20.4554 20.7072 15.7134 26.2515 11.6709C26.1336 11.7491 18.0919 17.751 10.3192 19.1012Z" fill="url(#paint9_linear_1007_11100)"/>
<path d="M10.5051 19.6943C8.15485 22.768 3.48575 23.9375 1.75443 23.931L2.25711 23.9384C13.4733 22.6229 22.9847 16.8713 28.8638 12.4121C18.6111 19.9258 13.6648 19.9384 10.5046 19.6943H10.5051Z" fill="url(#paint10_linear_1007_11100)"/>
<path d="M10.5359 20.6838C10.5359 20.6838 10.4785 20.6682 10.4776 20.6695C8.15048 23.4473 3.65372 24.7928 1.90063 24.8602L2.36676 24.8506C15.6133 23.8427 24.7421 19.3027 30.2438 15.4609C19.8158 22.4008 13.2191 21.3494 10.5359 20.6838Z" fill="url(#paint11_linear_1007_11100)"/>
</g>
<defs>
<linearGradient id="paint0_linear_1007_11100" x1="22.926" y1="30.21" x2="0.269246" y2="-17.4394" gradientUnits="userSpaceOnUse">
<stop stop-color="#0065FF"/>
<stop offset="1" stop-color="#C1FFFF"/>
</linearGradient>
<linearGradient id="paint1_linear_1007_11100" x1="22.8202" y1="30.21" x2="0.163473" y2="-17.4394" gradientUnits="userSpaceOnUse">
<stop stop-color="#0094FF"/>
<stop offset="1" stop-color="#C1FFFF"/>
</linearGradient>
<linearGradient id="paint2_linear_1007_11100" x1="5.96974" y1="16.8501" x2="50.6707" y2="12.3948" gradientUnits="userSpaceOnUse">
<stop stop-color="#EFEEFF"/>
<stop offset="0.17" stop-color="#E5E9FF"/>
<stop offset="0.44" stop-color="#CCDEFF"/>
<stop offset="0.79" stop-color="#A3CBFF"/>
<stop offset="1" stop-color="#87BFFF"/>
</linearGradient>
<radialGradient id="paint3_radial_1007_11100" cx="0" cy="0" r="1" gradientUnits="userSpaceOnUse" gradientTransform="translate(10.9454 15.5456) rotate(-16.4321) scale(26.3213 10.7755)">
<stop stop-color="#1249FF"/>
<stop offset="1" stop-color="#CCD7F6" stop-opacity="0"/>
</radialGradient>
<linearGradient id="paint4_linear_1007_11100" x1="17.7902" y1="21.1892" x2="20.5631" y2="25.6586" gradientUnits="userSpaceOnUse">
<stop stop-color="white" stop-opacity="0"/>
<stop offset="0.28" stop-color="white" stop-opacity="0.5"/>
</linearGradient>
<linearGradient id="paint5_linear_1007_11100" x1="-1.87547" y1="9.39987" x2="42.8552" y2="19.303" gradientUnits="userSpaceOnUse">
<stop stop-color="#EFEEFF"/>
<stop offset="0.17" stop-color="#E5E9FF"/>
<stop offset="0.44" stop-color="#CCDEFF"/>
<stop offset="0.79" stop-color="#A3CBFF"/>
<stop offset="1" stop-color="#87BFFF"/>
</linearGradient>
<linearGradient id="paint6_linear_1007_11100" x1="16.6993" y1="18.2534" x2="18.8316" y2="20.8527" gradientUnits="userSpaceOnUse">
<stop stop-color="#EFEEFF" stop-opacity="0"/>
<stop offset="0.08" stop-color="#EFEEFF" stop-opacity="0.04"/>
<stop offset="0.23" stop-color="#F1F0FF" stop-opacity="0.14"/>
<stop offset="0.41" stop-color="#F3F3FF" stop-opacity="0.3"/>
<stop offset="0.62" stop-color="#F7F6FF" stop-opacity="0.53"/>
<stop offset="0.86" stop-color="#FBFBFF" stop-opacity="0.81"/>
<stop offset="1" stop-color="white"/>
</linearGradient>
<linearGradient id="paint7_linear_1007_11100" x1="-6.40755" y1="21.638" x2="34.356" y2="6.38599" gradientUnits="userSpaceOnUse">
<stop stop-color="white"/>
<stop offset="0.7" stop-color="#F5FFFF"/>
<stop offset="1" stop-color="#F0FFFF"/>
</linearGradient>
<linearGradient id="paint8_linear_1007_11100" x1="19.4106" y1="18.3511" x2="21.3195" y2="19.9485" gradientUnits="userSpaceOnUse">
<stop stop-color="white" stop-opacity="0"/>
<stop offset="0.08" stop-color="white" stop-opacity="0.04"/>
<stop offset="0.23" stop-color="white" stop-opacity="0.14"/>
<stop offset="0.41" stop-color="white" stop-opacity="0.3"/>
<stop offset="0.62" stop-color="white" stop-opacity="0.53"/>
<stop offset="0.86" stop-color="white" stop-opacity="0.81"/>
<stop offset="1" stop-color="white"/>
</linearGradient>
<linearGradient id="paint9_linear_1007_11100" x1="9.56045" y1="9.14916" x2="23.7445" y2="29.644" gradientUnits="userSpaceOnUse">
<stop stop-color="#EFEEFF"/>
<stop offset="0.08" stop-color="#E5E9FF"/>
<stop offset="0.22" stop-color="#CCDEFF"/>
<stop offset="0.4" stop-color="#A3CBFF"/>
<stop offset="0.5" stop-color="#87BFFF"/>
<stop offset="0.63" stop-color="#87BFFF"/>
</linearGradient>
<linearGradient id="paint10_linear_1007_11100" x1="1.38725" y1="22.7146" x2="29.429" y2="14.3026" gradientUnits="userSpaceOnUse">
<stop stop-color="#7CAAFF"/>
<stop offset="1" stop-color="#88CAFF"/>
</linearGradient>
<linearGradient id="paint11_linear_1007_11100" x1="15.9037" y1="19.4317" x2="16.6323" y2="22.5619" gradientUnits="userSpaceOnUse">
<stop stop-color="#4A98EF"/>
<stop offset="0.24" stop-color="#3D92E9"/>
<stop offset="0.69" stop-color="#1B83D9"/>
<stop offset="1" stop-color="#0077CD"/>
</linearGradient>
</defs>
</svg>
