<svg width="37" height="30" viewBox="0 0 37 30" fill="none" xmlns="http://www.w3.org/2000/svg">
<path d="M0.87216 11.5428C0.543128 9.1403 2.41029 7 4.83517 7H31.6648C34.0897 7 35.9569 9.14031 35.6278 11.5428L33.5735 26.5428C33.3022 28.5237 31.6099 30 29.6105 30H6.88951C4.89011 30 3.19781 28.5237 2.92651 26.5428L0.87216 11.5428Z" fill="url(#paint0_linear_1007_9619)"/>
<path d="M22.426 23H20.122L16.39 16.52H16.342C16.358 16.792 16.37 17.064 16.378 17.336C16.394 17.608 16.406 17.88 16.414 18.152C16.43 18.424 16.442 18.696 16.45 18.968V23H14.83V14.432H17.122L20.842 20.852H20.878C20.87 20.588 20.862 20.324 20.854 20.06C20.846 19.796 20.834 19.536 20.818 19.28C20.81 19.016 20.802 18.752 20.794 18.488V14.432H22.426V23Z" fill="#5A6B7A"/>
<path d="M3.25 5H33.25C33.25 3.61929 32.1307 2.5 30.75 2.5H17.0623C16.2305 2.5 15.4767 2.01013 15.1389 1.25C14.8011 0.489873 14.0473 0 13.2154 0H7.25C5.04086 0 3.25 1.79086 3.25 4V5Z" fill="#D26B84"/>
<defs>
<linearGradient id="paint0_linear_1007_9619" x1="33.75" y1="33" x2="-9.75" y2="-4" gradientUnits="userSpaceOnUse">
<stop stop-color="#C4CAD3"/>
<stop offset="1" stop-color="#C4CAD3" stop-opacity="0"/>
</linearGradient>
</defs>
</svg>
