<svg width="37" height="30" viewBox="0 0 37 30" fill="none" xmlns="http://www.w3.org/2000/svg">
<path d="M0.87216 11.5428C0.543128 9.1403 2.41029 7 4.83517 7H31.6648C34.0897 7 35.9569 9.14031 35.6278 11.5428L33.5735 26.5428C33.3022 28.5237 31.6099 30 29.6105 30H6.88951C4.89011 30 3.19781 28.5237 2.92651 26.5428L0.87216 11.5428Z" fill="url(#paint0_linear_1007_9633)"/>
<path d="M20.382 20.624C20.382 21.128 20.258 21.568 20.01 21.944C19.762 22.32 19.402 22.612 18.93 22.82C18.466 23.02 17.898 23.12 17.226 23.12C16.93 23.12 16.638 23.1 16.35 23.06C16.07 23.02 15.798 22.964 15.534 22.892C15.278 22.812 15.034 22.716 14.802 22.604V20.912C15.21 21.088 15.63 21.252 16.062 21.404C16.502 21.548 16.938 21.62 17.37 21.62C17.666 21.62 17.902 21.58 18.078 21.5C18.262 21.42 18.394 21.312 18.474 21.176C18.562 21.04 18.606 20.884 18.606 20.708C18.606 20.492 18.53 20.308 18.378 20.156C18.234 20.004 18.038 19.864 17.79 19.736C17.542 19.6 17.258 19.456 16.938 19.304C16.738 19.208 16.522 19.096 16.29 18.968C16.058 18.832 15.834 18.668 15.618 18.476C15.41 18.276 15.238 18.036 15.102 17.756C14.966 17.476 14.898 17.14 14.898 16.748C14.898 16.236 15.014 15.8 15.246 15.44C15.486 15.072 15.822 14.792 16.254 14.6C16.694 14.408 17.21 14.312 17.802 14.312C18.25 14.312 18.674 14.364 19.074 14.468C19.482 14.572 19.906 14.72 20.346 14.912L19.758 16.328C19.366 16.168 19.014 16.044 18.702 15.956C18.39 15.868 18.07 15.824 17.742 15.824C17.518 15.824 17.326 15.86 17.166 15.932C17.006 16.004 16.882 16.104 16.794 16.232C16.714 16.36 16.674 16.512 16.674 16.688C16.674 16.888 16.734 17.06 16.854 17.204C16.974 17.34 17.154 17.472 17.394 17.6C17.634 17.728 17.934 17.88 18.294 18.056C18.734 18.264 19.106 18.48 19.41 18.704C19.722 18.928 19.962 19.192 20.13 19.496C20.298 19.8 20.382 20.176 20.382 20.624Z" fill="#5A6B7A"/>
<path d="M3.25 5H33.25C33.25 3.61929 32.1307 2.5 30.75 2.5H17.0623C16.2305 2.5 15.4767 2.01013 15.1389 1.25C14.8011 0.489873 14.0473 0 13.2154 0H7.25C5.04086 0 3.25 1.79086 3.25 4V5Z" fill="#5CBFA7"/>
<defs>
<linearGradient id="paint0_linear_1007_9633" x1="33.75" y1="33" x2="-9.75" y2="-4" gradientUnits="userSpaceOnUse">
<stop stop-color="#C4CAD3"/>
<stop offset="1" stop-color="#C4CAD3" stop-opacity="0"/>
</linearGradient>
</defs>
</svg>
